<?xml version="1.0" standalone="no"?>
<!DOCTYPE svg PUBLIC "-//W3C//DTD SVG 20010904//EN"
 "http://www.w3.org/TR/2001/REC-SVG-20010904/DTD/svg10.dtd">
<svg version="1.0" xmlns="http://www.w3.org/2000/svg"
 width="1920.000000pt" height="1920.000000pt" viewBox="0 0 1920.000000 1920.000000"
 preserveAspectRatio="xMidYMid meet">
<metadata>
Created by potrace 1.16, written by Peter Selinger 2001-2019
</metadata>
<g transform="translate(0.000000,1920.000000) scale(0.100000,-0.100000)"
fill="#000000" stroke="none">
<path d="M0 9600 l0 -9600 9600 0 9600 0 0 9600 0 9600 -9600 0 -9600 0 0
-9600z m1136 9017 c-9 -30 -16 -59 -16 -64 0 -4 28 -19 63 -33 l62 -25 -66 -3
-66 -3 -9 -67 -9 -66 -24 59 c-13 33 -25 62 -27 63 -1 2 -28 -4 -59 -13 -32
-9 -59 -14 -61 -12 -2 2 18 19 46 38 27 19 50 38 50 43 0 5 -19 34 -41 64 -43
57 -42 57 28 10 23 -15 46 -28 52 -28 5 0 27 22 48 49 21 27 40 47 41 46 2 -2
-3 -28 -12 -58z m13234 -351 c0 -2 -117 -106 -260 -231 l-261 -227 30 -33 c16
-19 35 -50 42 -69 10 -27 17 -35 30 -31 9 3 158 66 330 140 172 74 315 132
317 131 2 -2 -144 -80 -324 -173 -283 -145 -329 -172 -335 -195 -7 -28 14 -48
27 -26 5 7 2 8 -7 3 -9 -5 -11 -5 -4 2 6 5 37 21 70 35 33 15 187 85 343 156
155 71 282 128 282 126 0 -2 -44 -26 -97 -53 -54 -27 -201 -104 -328 -170
-126 -67 -235 -119 -243 -116 -7 2 -10 0 -7 -5 3 -5 -11 -18 -32 -29 -21 -11
-47 -33 -57 -49 -25 -38 -95 -80 -157 -93 -84 -18 -179 12 -238 75 -28 30 -20
47 12 27 20 -13 21 -13 8 3 -8 9 -23 15 -35 14 -47 -7 -66 164 -26 241 12 25
25 39 32 35 7 -5 8 -3 3 5 -5 8 4 24 25 42 41 38 79 57 129 65 30 5 63 24 116
65 76 60 98 73 74 42 -13 -16 -12 -17 3 -4 10 7 16 17 13 21 -7 12 36 40 49
33 6 -3 8 -3 4 2 -9 9 9 35 24 35 7 0 6 -5 -1 -13 -6 -8 -9 -16 -6 -19 5 -4
-129 -128 -139 -128 -3 0 -3 8 1 18 3 9 3 14 -1 10 -4 -3 -8 -12 -10 -20 -1
-7 -5 -19 -10 -26 -9 -15 -10 -14 24 -29 23 -9 46 5 305 203 291 221 285 216
285 210z m-4860 -1730 c60 -8 162 -12 240 -10 439 11 1460 14 1519 4 83 -14
171 -40 171 -51 0 -5 9 -9 19 -9 26 0 116 -101 151 -170 16 -31 50 -119 76
-196 103 -305 139 -392 191 -460 35 -46 58 -49 83 -10 31 50 39 114 49 356 10
230 20 291 61 368 l19 34 6 -33 c3 -19 4 -423 3 -899 l-3 -865 -272 820 c-227
687 -293 887 -339 1034 -3 8 -12 11 -27 7 -12 -3 -400 -6 -863 -6 l-841 0 -49
-152 -49 -153 -3 55 c-2 30 -2 101 0 157 l3 103 -1920 0 -1920 0 -85 -24
c-385 -106 -637 -332 -710 -638 -36 -151 -22 -360 35 -517 18 -53 138 -250
229 -379 l65 -92 -752 1 c-547 0 -744 3 -722 11 17 6 32 14 35 18 3 4 37 18
75 31 67 22 87 23 520 28 485 6 480 6 530 61 31 34 26 128 -9 205 -66 142
-106 306 -106 434 0 79 22 211 44 263 9 21 15 41 14 45 -1 5 14 40 33 78 141
287 477 508 844 554 39 5 853 9 1810 9 1407 1 1760 -2 1845 -12z m4695 -49
c187 -45 321 -100 460 -192 284 -187 447 -441 500 -781 14 -87 16 -143 11
-274 -4 -105 -2 -179 5 -203 14 -51 69 -110 116 -126 25 -9 135 -16 318 -21
227 -6 289 -10 330 -25 28 -9 55 -21 62 -27 6 -5 24 -13 40 -18 16 -5 -200 -9
-509 -9 -296 -1 -538 1 -538 3 0 2 12 34 26 72 83 221 96 516 34 759 -91 356
-399 639 -820 755 -73 20 -98 20 -1075 20 -550 0 -1011 3 -1024 7 -20 5 -16 9
35 31 116 50 126 51 1074 48 786 -2 893 -4 955 -19z m-4767 -665 l2 -422 -470
0 -470 0 0 -865 0 -865 -455 0 -455 0 0 860 0 860 -575 0 c-316 0 -575 -3
-575 -6 0 -4 31 -41 68 -83 177 -199 503 -617 527 -676 44 -106 64 -365 36
-475 -53 -211 -193 -351 -438 -437 l-78 -28 -660 -3 c-363 -2 -913 0 -1222 3
l-563 7 0 449 0 449 885 2 885 3 -54 43 c-116 93 -307 343 -474 622 -62 105
-82 173 -89 315 -10 191 32 301 167 435 73 73 100 93 190 138 58 28 143 62
190 76 l85 24 1770 -2 1770 -2 3 -422z m1994 85 c58 -177 152 -463 208 -634
56 -172 198 -602 316 -955 118 -353 214 -644 214 -645 0 -2 -221 -2 -492 -1
l-491 3 -66 158 -66 157 -449 -2 -448 -3 -54 -155 c-30 -85 -54 -156 -54 -157
0 -2 -216 -3 -480 -3 -358 0 -480 3 -480 12 0 10 253 800 415 1298 35 107 139
427 231 710 92 283 170 522 175 531 7 14 75 15 711 12 l703 -5 107 -321z
m2805 266 c363 -127 575 -345 628 -649 20 -115 21 -318 1 -409 -40 -188 -121
-340 -249 -472 l-51 -53 379 -1 c209 -1 503 -1 653 1 l272 2 0 -451 0 -451
-482 -1 c-624 0 -1172 -7 -1224 -14 -59 -8 -131 22 -212 88 -63 52 -286 279
-538 549 l-109 117 -3 -379 -2 -380 -490 0 -490 0 0 1265 0 1264 113 4 c61 2
472 3 912 3 l800 -1 92 -32z m-10236 -343 c21 -52 38 -102 38 -110 1 -33 -199
-158 -432 -270 -171 -82 -519 -277 -596 -334 -25 -19 -78 -67 -117 -108 -116
-120 -182 -231 -245 -408 -29 -81 -42 -103 -89 -151 -34 -34 -71 -61 -95 -69
-22 -7 -48 -21 -58 -31 -19 -21 -61 -34 -75 -25 -5 3 -78 104 -162 223 -84
120 -154 220 -156 222 -2 2 -38 -9 -80 -24 -80 -28 -93 -26 -94 18 0 31 -37
20 -43 -13 -9 -44 -23 -37 -46 25 -12 30 -30 80 -42 111 -12 30 -18 58 -15 61
3 3 17 -2 31 -11 31 -21 46 -13 43 22 -3 26 2 29 184 97 l186 70 -18 47 c-62
164 -129 206 -249 157 -28 -12 -53 -20 -55 -18 -4 4 -56 500 -56 535 0 14 11
24 35 33 19 7 39 10 44 7 5 -3 26 1 47 10 23 10 68 17 109 18 66 0 76 -3 167
-51 235 -126 344 -157 553 -157 142 1 164 3 400 52 138 29 294 65 348 81 149
44 413 92 481 87 13 -1 28 -26 57 -96z m13604 -164 c88 -24 231 -97 302 -156
120 -97 215 -242 265 -400 20 -65 23 -96 23 -225 0 -129 -3 -160 -23 -225 -71
-225 -214 -395 -417 -496 -124 -61 -222 -84 -357 -84 -134 0 -226 19 -336 71
-239 111 -398 305 -457 559 -19 86 -19 262 1 353 21 94 100 256 164 334 113
139 290 245 471 283 66 14 294 5 364 -14z m-8271 -508 c-4 -13 -83 -257 -176
-543 -93 -286 -208 -640 -256 -787 l-86 -268 -53 0 -53 0 0 810 0 810 316 0
315 0 -7 -22z m-1992 -808 l-2 -820 -182 -2 -181 -3 -51 -152 c-28 -84 -53
-153 -56 -153 -3 0 -28 70 -55 155 -26 85 -53 155 -57 155 -5 0 32 21 81 46
218 111 366 296 421 524 27 115 27 292 0 433 -34 178 -44 197 -186 382 -71 92
-144 187 -162 211 l-34 44 234 0 233 0 -3 -820z m-3490 -880 c10 -19 140 -440
288 -935 149 -495 343 -1142 432 -1437 l162 -538 601 0 600 0 74 235 c41 129
75 234 77 233 2 -3 157 -419 169 -455 4 -10 261 -13 1242 -13 l1238 0 53 160
53 160 299 0 298 0 60 -142 c32 -79 62 -151 65 -160 6 -17 73 -18 1209 -19
662 -1 1214 -5 1228 -9 23 -7 23 -8 3 -9 -12 -1 -25 -5 -28 -11 -3 -5 -38 -20
-78 -32 l-72 -23 -1020 0 c-815 0 -1032 3 -1080 13 -79 18 -188 69 -179 84 4
7 3 8 -4 4 -7 -4 -29 10 -52 33 -22 22 -40 38 -40 37 0 -1 -20 17 -45 40 -87
81 -206 116 -321 97 -93 -16 -138 -42 -248 -143 -57 -53 -120 -100 -150 -114
-113 -52 -97 -51 -1196 -51 -1118 0 -1070 -2 -1200 58 -36 17 -67 31 -70 32
-3 1 -22 9 -44 18 -47 21 -118 22 -155 2 -16 -8 -31 -11 -35 -8 -3 4 -6 1 -6
-6 0 -7 -4 -9 -10 -6 -5 3 -10 1 -10 -4 0 -6 -5 -11 -11 -11 -5 0 -35 -11 -66
-25 -102 -47 -218 -57 -603 -52 -257 3 -359 8 -400 19 -75 20 -172 66 -165 78
3 6 0 10 -7 10 -16 0 -79 90 -103 145 -30 72 -62 167 -123 370 -33 110 -87
290 -121 400 -33 110 -73 245 -89 300 -16 55 -60 199 -97 320 -37 121 -109
362 -162 535 -52 173 -101 338 -110 365 -77 251 -130 442 -138 495 -29 188
-36 926 -10 1072 15 87 37 152 55 163 5 3 11 18 12 33 2 15 5 -265 8 -623 5
-592 7 -653 22 -685z m12275 1239 c25 -55 41 -130 47 -224 8 -120 9 -1988 2
-2030 -12 -65 -27 -109 -45 -129 -9 -10 -15 -20 -13 -22 1 -2 2 -10 1 -16 0
-7 -5 -2 -11 12 -6 17 -11 444 -14 1265 -2 682 0 1229 4 1215 4 -14 17 -46 29
-71z m-2224 -1179 c46 -24 60 -40 34 -40 -6 0 -57 -22 -112 -49 -160 -79 -261
-175 -340 -323 l-32 -60 -21 35 c-28 43 -182 192 -247 237 -27 19 -86 54 -130
77 l-80 42 268 1 267 0 0 222 0 221 173 -169 c103 -102 191 -179 220 -194z
m-2947 132 c24 -57 44 -108 44 -113 0 -5 -79 -9 -180 -9 l-180 0 -2 -937 -3
-938 -71 215 c-257 774 -514 1557 -514 1562 0 4 34 8 76 10 l77 3 55 158 54
157 300 -2 300 -3 44 -103z m-5446 -199 c1 -22 -104 -293 -110 -286 -8 9 -100
270 -100 284 0 11 210 12 210 2z m-402 -138 c2 -2 64 -178 139 -391 74 -214
138 -392 142 -396 3 -3 71 171 151 388 l145 394 230 0 c127 0 334 -3 461 -7
l231 -6 118 -361 c65 -199 122 -372 127 -386 8 -22 22 11 99 235 49 143 109
319 134 390 l46 131 464 0 c256 0 465 -2 465 -6 0 -7 -54 -177 -387 -1210
-101 -316 -213 -667 -248 -780 -35 -113 -88 -280 -117 -373 l-53 -167 -424 2
-424 3 -163 435 c-90 239 -167 444 -172 455 -7 15 -15 -1 -40 -80 -18 -55 -83
-260 -145 -455 l-114 -355 -444 -2 -444 -3 -258 863 c-142 474 -312 1042 -378
1262 -65 220 -122 408 -125 418 -5 17 15 18 488 11 271 -4 494 -8 496 -9z
m4883 -405 c75 -228 265 -803 422 -1277 l285 -863 -492 0 -491 0 -65 158 -65
157 -449 0 -448 0 -53 -153 c-29 -84 -55 -155 -57 -157 -3 -3 -221 -4 -484 -3
l-480 3 212 657 c200 619 271 839 516 1591 l100 307 706 -2 706 -3 137 -415z
m5909 122 c0 -165 3 -360 7 -435 l6 -137 -536 7 c-296 3 -537 3 -537 0 0 -4
49 -69 108 -144 281 -358 462 -609 482 -669 51 -144 66 -306 40 -419 -40 -178
-184 -325 -410 -419 -114 -47 -77 -46 -1280 -46 l-1135 0 -50 24 c-51 24 -265
233 -608 596 l-147 155 0 -382 0 -383 -490 0 -490 0 0 1265 0 1265 263 0 c144
0 541 3 882 6 609 7 622 7 703 -14 358 -91 603 -308 687 -607 26 -94 32 -369
10 -476 -34 -172 -111 -323 -226 -444 l-69 -73 472 -3 c260 -2 521 -2 580 -1
l107 4 -108 126 c-334 395 -339 401 -399 515 -89 167 -122 287 -122 437 0 275
178 457 520 530 78 17 151 19 913 19 l827 1 0 -298z m95 -793 l90 -1 -61 -29
c-34 -16 -88 -34 -120 -38 -33 -5 -95 -15 -139 -21 -88 -13 -136 -36 -153 -75
-23 -50 -18 -74 56 -240 67 -152 92 -279 88 -455 -10 -467 -335 -822 -826
-901 -124 -20 -2151 -20 -2255 0 -119 23 -168 40 -277 95 -127 66 -175 80
-224 67 -45 -13 -100 -49 -113 -76 -7 -14 -10 52 -10 210 l-1 230 188 -187
c111 -110 204 -195 229 -207 24 -12 80 -30 125 -41 80 -19 121 -20 1200 -20
1191 0 1167 -1 1310 49 286 99 482 303 554 576 30 112 26 346 -8 491 -37 159
-44 169 -275 466 -46 58 -83 110 -83 114 0 4 138 4 308 1 169 -4 348 -7 397
-8z m-2282 -233 c37 -44 67 -83 67 -86 0 -3 -215 -4 -258 0 -1 0 6 17 17 38
10 20 29 71 41 111 l23 74 21 -29 c12 -16 51 -64 89 -108z m-12577 -359 c-9
-30 -16 -59 -16 -64 0 -5 25 -17 56 -28 30 -10 57 -22 60 -27 3 -4 -24 -8 -60
-8 l-66 0 -1 -32 c-1 -36 -9 -91 -13 -96 -2 -1 -13 24 -26 58 -12 33 -28 60
-34 60 -6 0 -33 -7 -60 -15 -27 -8 -51 -14 -53 -12 -1 2 17 18 42 36 24 17 47
36 50 42 4 5 -10 31 -29 58 -20 27 -36 51 -36 55 0 3 22 -10 49 -29 26 -19 53
-35 59 -35 5 0 27 22 48 50 21 27 40 48 42 46 2 -3 -3 -29 -12 -59z m16070
-388 c34 -21 94 -84 94 -99 0 -4 -18 -23 -40 -40 l-40 -32 -47 42 c-26 23 -60
49 -74 57 -20 12 -28 26 -31 52 -3 20 -8 44 -12 53 -7 15 -3 16 55 2 34 -8 77
-24 95 -35z m594 34 c0 -5 18 -28 39 -52 l38 -44 44 30 c73 49 75 49 32 -12
l-42 -59 54 -40 c30 -22 53 -41 52 -42 -2 -2 -25 3 -52 11 -26 8 -54 15 -60
15 -7 0 -25 -28 -41 -62 l-29 -63 -3 68 -3 67 -64 0 c-36 0 -65 4 -65 8 0 4
25 16 56 27 30 10 57 22 59 25 2 4 -4 34 -15 68 -10 34 -14 62 -9 62 5 0 9 -3
9 -7z m-822 -88 c173 -55 284 -175 333 -362 26 -101 27 -290 2 -413 l-18 -85
-116 -5 -117 -5 -4 135 c-7 204 -48 288 -170 349 -68 34 -139 41 -210 19 -55
-16 -132 -88 -161 -150 l-25 -51 -7 42 c-11 64 -62 157 -108 196 -47 40 -119
65 -189 65 -26 0 -48 3 -48 8 0 32 134 147 235 201 169 90 421 114 603 56z
m494 -169 c22 -32 55 -91 73 -130 122 -265 68 -601 -142 -877 -30 -41 -70
-105 -88 -144 -32 -69 -65 -190 -65 -239 0 -31 -34 -56 -77 -56 l-34 0 18 33
c14 25 18 55 18 137 l0 105 51 80 c107 166 189 357 230 530 15 62 19 116 18
240 0 144 -3 169 -27 246 -14 48 -38 113 -52 145 l-25 59 30 -35 c17 -19 49
-61 72 -94z m-94 -7 c58 -115 75 -190 75 -329 0 -144 -4 -160 -46 -160 l-32 0
0 130 c0 121 1 129 20 133 17 3 15 6 -11 17 -26 11 -34 24 -52 84 -13 39 -35
91 -51 116 l-28 45 31 27 c17 15 36 26 41 24 6 -1 29 -40 53 -87z m-1091 -141
c73 -27 98 -50 135 -126 30 -61 33 -74 33 -162 0 -168 -50 -313 -140 -406 -55
-58 -49 -77 10 -28 24 20 49 33 55 29 7 -4 27 -31 46 -61 30 -47 64 -71 64
-46 0 12 -75 128 -88 136 -5 3 1 27 15 57 14 29 34 94 44 146 49 235 149 370
292 389 101 14 184 -41 243 -161 46 -93 57 -209 29 -296 -32 -97 -55 -130
-189 -269 -73 -76 -156 -173 -186 -216 -29 -44 -54 -80 -56 -82 -1 -2 -35 3
-75 10 l-74 13 -3 37 c-3 36 -3 36 -70 51 -37 9 -84 19 -104 22 -38 6 -38 6
-38 -29 0 -35 -1 -35 -32 -29 -84 16 -82 15 -90 79 -4 32 -22 127 -42 209 -56
241 -60 265 -60 365 0 107 22 195 80 317 37 77 47 83 114 75 19 -3 58 -13 87
-24z m1130 -386 c21 -7 21 -8 -21 -132 -42 -125 -132 -327 -141 -318 -3 3 4
31 15 64 28 79 67 237 75 299 13 101 15 104 72 87z m-142 -249 c-11 -73 -61
-218 -105 -302 -35 -68 -45 -78 -85 -94 -24 -10 -58 -34 -74 -53 l-30 -34 -98
0 c-54 0 -129 3 -166 7 -57 5 -67 9 -62 22 21 55 85 139 183 240 101 103 182
210 182 239 0 14 35 19 159 21 l103 1 -7 -47z m-1037 -424 c12 -33 176 -75
192 -49 6 9 19 9 66 -1 33 -7 62 -15 66 -18 4 -4 1 -38 -7 -76 -8 -39 -15 -96
-15 -127 l0 -58 -37 0 c-102 1 -257 37 -345 82 l-38 18 0 129 0 128 58 -9 c31
-5 59 -13 60 -19z m901 -37 c20 -66 7 -126 -37 -172 -48 -50 -75 -57 -103 -29
-18 18 -20 29 -15 66 11 83 85 189 125 181 9 -2 22 -22 30 -46z m-14896 8
c107 -40 184 -118 233 -237 33 -81 34 -214 1 -294 -41 -99 -126 -197 -160
-183 -7 2 -21 20 -30 39 -9 19 -21 35 -25 35 -10 0 -54 -34 -135 -103 -42 -36
-46 -42 -30 -49 13 -5 10 -7 -12 -6 -30 2 -203 -136 -1010 -807 -111 -92 -135
-110 -135 -102 0 3 165 141 368 308 202 167 419 346 482 398 63 52 129 106
145 119 86 70 98 84 84 94 -11 8 -11 9 2 5 15 -5 60 27 184 130 21 18 35 37
32 45 -5 12 -124 183 -249 357 -29 40 -58 80 -63 88 -9 12 -27 7 -114 -36 -57
-28 -107 -51 -111 -51 -7 0 -257 -122 -950 -462 -352 -173 -450 -219 -450
-212 0 2 132 69 292 147 161 79 421 206 578 282 322 158 711 353 722 364 4 4
-6 23 -22 43 l-31 37 43 25 c101 59 245 70 361 26z m14602 -60 l122 0 -10 -46
c-8 -32 -8 -58 0 -87 7 -23 10 -43 9 -44 -1 -1 -45 -14 -96 -28 -101 -27 -231
-42 -274 -31 -22 5 -26 12 -26 44 0 46 21 126 44 171 17 32 19 33 63 27 25 -3
101 -6 168 -6z m258 -207 c4 -7 -12 -185 -17 -190 -1 -2 -58 8 -127 22 -166
32 -354 55 -456 55 -64 0 -83 3 -83 14 0 10 37 14 178 19 141 4 193 10 257 27
44 13 109 31 145 41 72 20 97 23 103 12z m-357 -182 c134 -20 305 -56 407 -86
49 -14 57 -20 57 -41 0 -13 -2 -24 -5 -24 -3 0 -58 11 -122 24 -249 52 -492
87 -583 85 -25 -1 17 -9 95 -19 180 -23 346 -53 465 -84 153 -40 148 -36 152
-101 l3 -57 -35 5 c-532 78 -919 127 -1009 127 -23 0 -41 3 -40 8 0 4 16 20
34 35 l34 28 153 -21 c84 -12 225 -34 313 -51 218 -40 231 -42 150 -19 -89 25
-382 84 -500 101 -49 7 -92 13 -94 15 -2 2 16 26 40 55 l44 52 155 -6 c85 -4
214 -15 286 -26z m-1117 -187 l32 -7 -69 -71 c-75 -77 -152 -189 -192 -276
-13 -30 -26 -57 -27 -59 -2 -3 -20 11 -41 31 -57 54 -137 114 -194 145 l-51
28 58 52 c64 58 186 126 266 147 57 16 165 20 218 10z m341 -14 c311 -20 1089
-119 1383 -176 l27 -6 -63 -68 c-63 -69 -139 -199 -171 -293 -65 -193 -22
-383 118 -523 l64 -64 -25 -51 c-26 -54 -95 -238 -132 -351 -14 -41 -29 -69
-39 -72 -93 -27 -202 -12 -322 46 -78 37 -97 53 -230 188 -80 81 -172 169
-205 196 -125 99 -285 148 -407 124 -88 -17 -156 -55 -288 -160 -62 -50 -131
-101 -153 -111 -58 -30 -127 -35 -202 -14 l-65 17 5 112 c3 61 8 134 11 162
l5 51 72 22 c450 132 953 74 1473 -168 151 -70 100 -35 -71 49 -179 88 -293
132 -447 169 -99 24 -244 51 -272 51 -11 0 -6 60 10 138 21 101 74 258 140
412 29 68 52 126 50 128 -6 6 -75 -113 -110 -190 -42 -91 -91 -243 -120 -373
l-23 -100 -164 -6 c-189 -7 -318 -22 -438 -50 -46 -11 -86 -17 -89 -14 -15 14
58 302 107 424 61 152 187 366 276 469 43 49 32 48 295 32z m1774 -249 c33
-11 84 -35 114 -53 64 -38 202 -164 202 -183 0 -23 -115 -168 -189 -238 -125
-117 -274 -206 -449 -267 -109 -39 -109 -39 -165 68 -73 140 -77 318 -12 457
51 108 170 207 281 234 56 14 150 7 218 -18z m-2586 -33 c92 -61 169 -124 181
-147 5 -10 3 -29 -6 -49 l-14 -34 -60 56 c-61 57 -148 120 -207 150 l-32 17
22 29 c12 17 26 30 30 30 5 0 44 -23 86 -52z m17 -148 c28 -21 65 -55 84 -74
l35 -36 -17 -72 c-26 -112 -46 -232 -53 -327 l-7 -86 -333 -280 c-184 -154
-339 -281 -344 -283 -6 -2 -10 2 -10 8 0 24 -73 167 -124 244 -30 44 -78 105
-105 135 -28 30 -47 59 -44 65 4 6 45 53 92 104 82 89 91 96 208 152 l122 58
-16 50 -16 50 93 103 c51 57 129 148 173 201 l81 98 65 -36 c37 -20 89 -53
116 -74z m2953 -130 l34 -39 -33 -48 c-51 -74 -176 -200 -260 -263 -93 -69
-229 -140 -334 -175 l-78 -25 -44 28 -44 29 78 28 c90 32 237 104 303 148 136
91 261 218 315 320 11 20 22 37 25 36 3 0 20 -18 38 -39z m-8507 -65 c180 -61
225 -277 123 -582 -43 -127 -77 -196 -249 -503 -23 -41 -59 -106 -80 -145 -21
-38 -81 -146 -133 -240 -52 -93 -118 -213 -147 -265 -29 -52 -105 -189 -170
-305 -64 -115 -164 -295 -222 -400 -135 -244 -115 -208 -395 -710 -132 -236
-265 -475 -296 -530 -30 -55 -100 -181 -155 -280 -55 -99 -142 -254 -192 -345
-241 -431 -255 -456 -321 -540 -86 -110 -113 -133 -186 -154 l-42 -13 -28 44
c-15 24 -28 45 -28 47 0 2 17 7 38 10 67 12 72 17 112 97 22 43 40 83 40 88 0
5 -23 34 -51 65 -54 60 -128 101 -196 112 -24 4 -43 8 -43 9 0 1 5 16 11 33 8
25 7 37 -11 71 -16 33 -26 41 -48 41 -15 0 -50 3 -78 6 l-51 6 -83 -137 -82
-137 11 -56 c9 -47 9 -58 -4 -69 -8 -7 -13 -11 -11 -8 2 3 -11 20 -29 38 -67
67 -66 156 2 271 46 80 75 115 170 211 46 46 95 107 115 145 30 53 532 952
626 1120 123 220 449 797 572 1015 84 149 164 290 178 315 39 70 362 633 485
845 226 390 327 539 463 684 71 76 151 133 212 151 44 14 125 11 173 -5z
m8733 -230 c216 -280 457 -627 444 -641 -3 -2 -38 -13 -77 -24 -140 -39 -263
-112 -381 -227 l-76 -73 -68 69 -68 68 -30 159 c-16 88 -31 161 -33 162 -8 8
-155 -42 -155 -52 0 -7 6 -36 14 -66 8 -30 13 -56 11 -58 -3 -3 -439 368 -443
377 -1 4 15 13 36 19 63 19 237 108 319 164 92 62 242 204 298 282 l40 56 23
-28 c12 -15 78 -99 146 -187z m-3724 65 c0 -10 -66 -44 -198 -102 -108 -48
-222 -98 -253 -112 -65 -28 -85 -22 -95 29 l-6 31 259 116 258 115 17 -31 c9
-17 17 -38 18 -46z m1502 -311 c72 -16 171 -61 234 -109 29 -22 88 -84 132
-137 104 -128 175 -194 250 -232 91 -46 178 -63 299 -59 88 3 102 1 99 -12 -3
-8 -15 -68 -27 -133 -23 -117 -23 -118 -49 -112 -212 54 -353 25 -598 -124
-202 -123 -331 -166 -481 -159 -140 6 -203 38 -313 160 -233 258 -292 310
-368 325 l-45 9 -3 160 -2 161 97 -5 c131 -6 179 13 332 128 64 48 131 95 148
104 83 42 197 56 295 35z m-1967 -88 c71 -37 172 -143 224 -234 43 -76 119
-282 108 -293 -3 -3 -102 -2 -221 2 l-215 7 25 50 c70 137 66 314 -11 491 -7
16 -5 17 16 11 13 -4 46 -19 74 -34z m-123 -7 c10 -17 21 -51 24 -76 l6 -46
-68 -6 c-38 -3 -206 -15 -374 -26 -168 -12 -354 -25 -415 -30 -98 -8 -111 -7
-119 8 -5 9 -29 38 -53 63 -42 45 -43 47 -21 52 22 6 290 23 446 30 64 2 72 1
72 -15 0 -35 30 -30 107 18 73 46 83 49 163 55 47 3 114 6 149 5 62 -1 66 -3
83 -32z m-1037 -130 c25 -25 45 -52 45 -58 0 -9 -30 -15 -102 -20 -113 -8
-254 -30 -290 -46 -18 -8 -55 0 -183 39 -88 28 -158 51 -155 51 22 6 574 78
603 79 32 1 44 -6 82 -45z m1089 -111 c-10 -108 -27 -174 -59 -228 l-28 -48
-266 7 c-146 3 -359 7 -473 7 -115 1 -208 3 -208 5 0 2 11 20 25 40 33 49 48
108 43 171 l-5 52 41 6 c67 9 795 62 869 64 l69 1 -8 -77z m-1765 38 l33 -18
-103 -50 c-57 -28 -133 -72 -168 -98 -62 -46 -65 -47 -103 -36 -21 7 -36 16
-33 21 9 15 320 200 335 199 3 0 20 -8 39 -18z m751 -38 c3 -2 5 -42 5 -87 0
-75 -2 -86 -28 -119 l-28 -37 -42 25 c-71 44 -146 74 -211 85 -54 10 -64 15
-84 47 -13 19 -22 36 -20 38 7 8 194 46 262 54 66 8 135 6 146 -6z m4960 10
c0 -5 23 -102 50 -218 45 -192 48 -211 33 -222 -15 -11 -63 -19 -63 -10 0 5
-100 408 -106 429 -3 11 2 18 18 21 40 7 68 7 68 0z m-5473 -38 c62 -18 103
-62 103 -108 l0 -32 -64 3 c-75 4 -164 -16 -253 -58 -54 -25 -63 -27 -74 -14
-7 9 -44 32 -81 53 l-69 38 63 35 c52 29 132 64 208 91 30 11 118 7 167 -8z
m-728 -182 c-63 -65 -128 -139 -143 -165 -28 -48 -39 -55 -65 -39 -23 15 42
122 119 195 55 51 172 126 199 126 3 0 -46 -53 -110 -117z m7217 86 c32 -6 62
-13 66 -15 7 -5 -4 -26 -166 -307 l-120 -206 -48 49 c-85 86 -250 148 -441
166 l-69 6 24 25 c64 71 258 192 385 242 118 46 255 61 369 40z m-6180 -73
c30 -14 66 -34 79 -45 l25 -19 -81 -62 -80 -62 -50 55 c-27 31 -58 59 -68 62
-19 6 -19 7 2 56 l22 50 48 -5 c27 -3 73 -17 103 -30z m-915 -1 l30 -16 -46
-52 c-25 -29 -56 -73 -68 -98 l-22 -47 -60 -4 c-33 -2 -62 -3 -63 -2 -2 2 8
25 23 52 32 59 141 182 161 182 8 0 28 -7 45 -15z m215 -21 c89 -53 92 -57 51
-83 -36 -22 -111 -98 -118 -120 -4 -10 -19 -4 -56 18 -29 18 -68 35 -87 38
-20 3 -36 8 -36 11 0 3 19 29 41 59 47 60 106 112 130 113 8 0 42 -16 75 -36z
m513 -98 c43 -28 83 -74 78 -90 -7 -20 -82 -56 -117 -56 -30 0 -44 8 -80 46
-29 30 -40 48 -32 51 7 3 34 20 60 38 26 18 48 33 50 34 1 1 20 -10 41 -23z
m4261 -268 l-5 -102 -55 -16 c-30 -9 -65 -22 -77 -29 -28 -14 -29 -8 -9 65 23
88 66 172 90 177 64 13 61 17 56 -95z m1548 87 c29 -9 52 -20 52 -25 0 -7
-374 -694 -386 -709 -2 -2 -24 4 -48 13 -47 18 -116 23 -136 11 -17 -11 -8 37
35 179 42 137 105 290 115 279 4 -4 17 -37 29 -73 27 -82 37 -98 51 -84 8 8 4
51 -15 153 l-25 142 33 56 c21 37 42 60 57 64 47 13 186 9 238 -6z m-1661 -7
c-43 -103 -59 -147 -68 -191 -11 -51 -38 -86 -68 -87 -26 0 7 145 56 243 20
41 27 47 54 47 21 0 29 -4 26 -12z m1833 -67 c25 -16 44 -32 43 -37 -2 -11
-411 -706 -421 -716 -4 -3 -29 13 -56 36 l-49 43 198 357 c220 398 196 371
285 317z m-2970 -146 c0 -36 41 -124 70 -150 18 -16 18 -19 3 -44 -10 -14 -18
-28 -20 -30 -2 -3 -38 29 -79 70 l-76 74 7 65 c3 36 8 75 11 87 6 22 6 22 45
-9 30 -24 39 -38 39 -63z m3074 56 l28 -30 -201 -334 c-111 -184 -208 -343
-215 -353 -13 -17 -15 -17 -40 0 -15 9 -29 23 -32 30 -3 7 48 100 113 207 65
107 161 265 213 351 52 87 98 158 101 158 3 0 18 -13 33 -29z m-2311 -41 l26
-21 -22 -42 c-16 -31 -22 -59 -22 -109 l0 -67 -60 -34 c-66 -38 -71 -37 -105
18 l-21 33 25 37 c24 34 37 69 50 126 4 18 21 36 48 53 52 31 49 31 81 6z
m-1049 -44 c29 -14 96 -63 150 -108 201 -171 253 -210 323 -245 64 -32 80 -35
150 -35 43 0 101 6 128 12 63 14 273 120 424 215 185 116 257 146 383 164 106
15 109 12 107 -75 l-2 -74 -43 0 c-63 0 -179 -25 -259 -54 -91 -35 -168 -79
-290 -166 -184 -132 -317 -186 -439 -178 -94 7 -143 31 -257 130 -173 148
-311 234 -422 262 -50 13 -52 15 -63 58 -7 25 -15 65 -19 88 l-7 43 41 -6 c23
-3 66 -17 95 -31z m656 -95 c5 -21 19 -50 30 -64 l20 -25 -41 -81 c-56 -111
-72 -110 -116 2 -18 45 -33 87 -33 92 0 17 64 104 80 109 40 11 49 6 60 -33z
m-13874 -49 c113 -57 273 -166 374 -254 120 -106 122 -108 71 -108 -73 0 -152
-55 -167 -117 -9 -34 -17 -29 -43 25 -67 140 -195 319 -306 428 -82 80 -82 81
-46 74 20 -4 72 -25 117 -48z m127 4 c304 -78 541 -203 728 -383 175 -169 276
-340 334 -568 20 -78 24 -86 30 -60 3 17 10 37 14 45 14 26 118 71 228 98
l106 26 -34 29 c-19 15 -71 52 -116 80 -46 29 -83 54 -83 57 0 16 347 154 512
204 189 57 309 79 438 80 113 1 116 0 190 -36 105 -52 190 -120 314 -249 151
-157 368 -453 484 -659 25 -45 47 -65 114 -109 94 -63 247 -210 301 -291 35
-52 36 -55 17 -62 -42 -15 -418 -26 -620 -17 -222 9 -290 16 -290 28 0 25 91
140 146 184 35 28 64 52 64 54 0 5 -46 -25 -107 -69 -29 -21 -54 -38 -57 -38
-2 0 9 24 24 53 29 53 100 237 100 257 0 7 -25 -38 -55 -98 -96 -192 -187
-292 -264 -292 -51 1 -66 17 -79 84 -16 78 -63 171 -126 248 -45 54 -54 71
-59 118 -4 34 -23 88 -48 140 -35 72 -57 100 -143 185 -56 55 -118 108 -137
119 -29 15 -27 12 16 -25 155 -134 253 -274 271 -388 l7 -43 -86 65 c-89 68
-116 85 -202 124 -56 26 -48 18 80 -70 50 -34 138 -109 196 -167 87 -86 112
-119 142 -180 19 -41 38 -92 42 -112 6 -36 4 -38 -20 -38 -39 0 -110 40 -224
126 -262 195 -533 321 -711 329 -72 4 -78 3 -41 -5 80 -17 204 -62 310 -111
106 -50 127 -68 55 -47 -53 16 -207 13 -271 -5 l-53 -14 6 26 c3 14 10 42 15
61 14 53 10 69 -7 30 -60 -138 -71 -356 -22 -461 49 -106 146 -176 297 -215
69 -17 191 -22 256 -11 58 11 25 -7 -81 -42 -116 -39 -243 -61 -363 -62 -136
-2 -69 -16 82 -18 242 -2 396 47 510 165 20 21 37 33 37 27 0 -22 -121 -172
-193 -239 -96 -89 -293 -236 -417 -309 -67 -40 -94 -61 -81 -63 36 -6 262 119
389 215 71 53 76 55 118 48 25 -3 68 -13 97 -22 l52 -15 -44 -39 c-24 -22 -41
-39 -37 -39 3 0 36 12 72 27 l67 26 64 -34 c34 -19 63 -37 63 -40 0 -4 -21
-21 -47 -38 -57 -36 -49 -38 36 -10 l63 21 57 -39 58 -40 38 20 c69 35 285 62
285 36 0 -22 -81 -166 -131 -232 -141 -187 -336 -276 -540 -246 -85 12 -115
26 -44 21 53 -5 157 21 204 51 52 31 110 86 127 118 8 16 14 44 14 63 0 30 -6
40 -41 65 -22 16 -63 34 -90 40 -70 15 -93 12 -38 -5 173 -53 128 -224 -71
-272 -78 -18 -172 -23 -250 -13 -41 5 -76 8 -78 6 -2 -2 27 -13 65 -25 37 -11
86 -29 108 -40 38 -18 128 -37 205 -42 27 -2 -1 -13 -116 -45 -82 -24 -163
-45 -180 -48 -26 -5 -45 8 -174 115 -80 66 -146 123 -147 128 -1 4 39 41 88
82 130 108 129 113 -4 27 -65 -43 -122 -77 -127 -77 -9 0 -25 18 -165 188
-196 237 -491 423 -837 528 l-88 26 60 65 c67 74 135 199 175 321 15 45 30 82
33 82 4 0 27 -6 52 -14 l45 -13 17 -84 c10 -46 33 -115 51 -154 34 -70 111
-165 150 -187 l21 -11 -19 29 c-82 124 -130 232 -168 380 l-21 82 -56 17
c-137 42 -275 144 -373 274 -39 52 -137 228 -137 246 0 4 20 -19 44 -51 55
-76 168 -183 226 -216 69 -40 153 -61 226 -56 35 2 66 6 69 9 15 16 -54 251
-122 412 -158 376 -469 706 -828 878 -55 27 -95 48 -88 49 7 0 72 -15 146 -34z
m-1188 -27 c171 -20 304 -80 401 -181 70 -72 97 -119 164 -283 123 -300 308
-700 504 -1094 91 -181 107 -220 120 -296 l15 -87 -41 -72 c-125 -215 -268
-331 -442 -358 -62 -9 -87 -9 -157 5 -78 16 -249 89 -249 106 0 4 22 13 50 20
27 7 52 16 55 21 2 4 -28 8 -69 8 -97 1 -176 31 -214 79 -23 31 -27 46 -27
103 0 58 4 72 30 110 17 24 53 58 81 76 28 18 54 41 58 50 9 23 -16 58 -65 94
l-40 29 38 8 c65 14 402 10 463 -6 190 -47 280 -160 251 -315 -6 -31 -24 -90
-41 -132 -28 -71 -32 -123 -9 -108 16 9 66 116 84 178 22 74 17 185 -10 241
-48 99 -165 171 -334 208 -171 37 -603 27 -589 -13 2 -5 36 -45 76 -89 l72
-80 -49 -49 c-60 -60 -101 -138 -101 -189 1 -49 29 -111 75 -162 l37 -41 -37
-34 c-79 -73 -156 -70 -277 11 -134 88 -208 206 -216 344 -2 43 1 99 8 127 13
56 11 55 128 67 57 6 67 11 116 56 69 62 101 133 93 201 -7 59 -47 135 -94
180 l-36 33 26 -40 c68 -109 59 -215 -31 -332 -24 -32 -27 -33 -101 -34 -127
-1 -153 -8 -174 -51 -10 -20 -24 -65 -31 -100 l-13 -63 -56 59 c-67 69 -115
160 -123 232 -4 31 0 87 10 140 12 69 56 414 56 445 0 3 73 9 163 12 212 7
352 33 487 90 11 5 45 -39 129 -163 108 -160 145 -205 105 -128 -26 51 -194
422 -194 429 0 4 21 10 48 13 53 8 152 52 152 68 0 5 -7 8 -15 4 -41 -16 -156
-28 -224 -24 -206 12 -337 159 -367 410 l-6 57 -112 3 -111 3 70 71 c128 129
250 162 490 133z m15945 -71 l-5 -63 -66 -7 c-145 -14 -308 -82 -426 -178
-283 -230 -450 -291 -605 -222 -24 10 -82 53 -130 95 -152 133 -301 220 -429
252 l-66 17 -9 79 c-12 98 -13 97 124 29 102 -51 203 -123 304 -216 32 -29 88
-67 125 -86 60 -30 76 -33 153 -33 134 0 229 39 458 189 222 146 367 204 512
205 l65 1 -5 -62z m8 -207 l3 -112 -85 -39 c-226 -103 -380 -264 -460 -478
-39 -107 -88 -182 -161 -251 -153 -145 -323 -137 -473 23 -79 85 -139 178
-253 392 -110 209 -172 286 -248 308 l-46 13 -3 97 -3 96 45 0 c71 0 217 -80
366 -201 161 -131 246 -173 345 -173 130 0 210 37 432 202 156 117 195 140
303 181 80 31 203 62 225 57 6 -2 11 -51 13 -115z m928 -51 c8 0 14 -7 14 -15
0 -18 -117 -502 -124 -514 -3 -3 -22 -5 -44 -3 l-39 4 5 101 c4 92 -4 169 -34
313 -6 30 -3 32 65 68 39 20 73 41 77 47 4 6 19 8 36 5 17 -3 37 -6 44 -6z
m-15228 -128 l80 -98 -61 0 c-102 0 -182 -58 -219 -160 l-12 -34 -43 103 c-30
70 -42 110 -38 127 10 39 54 98 93 122 39 24 104 48 113 42 4 -2 43 -48 87
-102z m15341 87 c30 -18 33 -23 28 -57 -3 -20 -20 -143 -37 -272 -18 -129 -34
-241 -36 -248 -2 -9 -14 -6 -41 12 -21 13 -55 30 -76 37 -31 11 -37 17 -33 34
2 11 33 131 67 268 68 269 65 265 128 226z m-839 -744 c11 -406 22 -627 40
-780 27 -223 97 -542 160 -730 l28 -83 -58 -36 c-93 -57 -159 -143 -200 -258
l-18 -53 -121 -3 -121 -3 0 69 c0 95 -16 175 -52 257 -166 378 -298 1078 -324
1720 l-6 150 66 87 c133 174 314 298 509 348 l72 18 7 -157 c4 -86 12 -331 18
-546z m988 640 c3 -2 -68 -588 -72 -592 -1 -1 -26 19 -55 46 l-54 47 32 210
c17 115 36 240 42 277 l11 68 46 -27 c26 -15 48 -28 50 -29z m-514 -66 c28
-121 27 -123 -33 -163 -29 -20 -55 -36 -56 -36 -4 0 -87 107 -99 127 -8 15 60
92 118 135 47 34 49 32 70 -63z m-2287 -21 c78 -84 143 -190 179 -290 8 -24
18 -124 24 -254 19 -410 45 -575 142 -929 87 -320 140 -462 237 -647 40 -74
41 -80 41 -172 l0 -96 -60 0 c-57 0 -60 1 -60 24 0 79 -96 377 -220 686 -45
113 -98 250 -116 305 -113 330 -184 700 -219 1138 -17 214 -19 287 -6 287 4 0
30 -24 58 -52z m2859 40 l26 -12 -5 -221 c-7 -261 -26 -378 -64 -383 -31 -5
-72 38 -67 69 5 32 74 545 74 553 0 9 6 8 36 -6z m-15427 -102 c27 -39 141
-247 141 -257 0 -2 -20 -3 -45 -1 -41 4 -49 1 -84 -34 -37 -38 -81 -132 -81
-174 0 -11 -6 -20 -12 -20 -22 0 -173 164 -197 212 -36 76 -37 110 -6 173 30
63 74 97 158 126 79 28 92 25 126 -25z m14694 -79 l40 -57 -54 -58 c-30 -31
-63 -70 -74 -85 l-20 -28 -48 49 -47 48 46 69 c51 79 93 127 107 122 5 -1 28
-29 50 -60z m-13989 -61 l39 -33 -70 -21 c-38 -12 -88 -35 -111 -52 -23 -16
-44 -30 -47 -30 -3 0 -5 24 -5 54 l0 53 68 31 c37 17 72 31 77 31 6 0 27 -15
49 -33z m3086 -10 c0 -2 -35 -12 -77 -21 -356 -79 -719 -242 -990 -446 -58
-43 -106 -79 -108 -79 -4 0 -137 242 -133 244 17 14 222 93 333 129 305 99
600 153 953 176 12 0 22 -1 22 -3z m-25 -33 c-55 -29 -249 -151 -330 -207 -44
-31 -83 -56 -88 -56 -5 0 -6 12 -3 28 2 15 7 44 11 65 7 46 18 51 260 133 166
56 201 64 150 37z m-3586 -178 c38 -106 84 -266 77 -272 -12 -12 -126 23 -208
64 l-91 45 6 49 c11 93 68 165 147 187 19 6 36 11 37 11 0 1 15 -37 32 -84z
m14820 53 c28 -14 46 -29 45 -39 -1 -12 -102 -164 -170 -258 -4 -4 -124 102
-124 109 0 3 29 50 65 105 36 54 65 103 65 108 0 15 67 1 119 -25z m-11684
-61 c-8 -20 -15 -56 -16 -79 0 -40 -5 -46 -55 -86 l-54 -42 0 49 c0 28 5 72
11 100 10 47 12 50 67 74 31 13 58 24 60 22 1 -1 -5 -18 -13 -38z m9528 -45
c77 -126 239 -245 350 -259 23 -3 47 -10 54 -15 6 -5 14 -41 18 -81 10 -110
44 -367 54 -408 l8 -37 -93 -7 c-152 -11 -323 15 -343 53 -10 20 -44 185 -66
327 -15 95 -33 485 -23 485 3 0 21 -26 41 -58z m857 -402 c18 -148 48 -339 86
-539 19 -101 34 -185 32 -186 -4 -4 -246 -65 -259 -65 -13 0 -67 116 -109 235
-42 122 -94 323 -125 490 -32 174 -32 195 -3 203 13 3 57 23 98 43 112 56 213
165 237 255 5 20 11 -30 19 -156 7 -102 17 -228 24 -280z m1438 426 c15 -8 35
-22 44 -32 16 -18 12 -26 -74 -146 l-91 -127 -29 17 c-15 9 -40 26 -54 37
l-26 21 52 69 c28 37 65 92 82 122 32 57 48 64 96 39z m-15428 -16 c0 -21 95
-175 151 -246 32 -40 86 -96 121 -125 35 -28 65 -56 67 -61 6 -17 -89 -146
-148 -200 -31 -28 -90 -73 -131 -100 -78 -50 -215 -112 -228 -104 -5 3 -22 27
-39 54 l-31 50 83 4 c71 4 94 10 170 46 89 43 114 68 34 34 -78 -33 -164 -47
-271 -43 -29 1 -40 7 -57 34 l-20 32 69 6 c79 8 163 43 227 95 49 40 52 49 21
58 -38 9 -170 91 -218 134 -44 39 -45 40 -20 45 112 23 137 30 167 48 19 12
32 23 30 25 -2 3 -46 -3 -97 -12 -57 -9 -111 -13 -142 -9 -47 7 -51 10 -93 73
-25 37 -45 71 -45 77 0 6 37 9 100 7 117 -4 186 12 246 57 42 32 54 37 54 21z
m3455 -41 c-9 -24 -19 -73 -23 -109 -7 -64 -8 -66 -76 -130 l-69 -65 6 84 c4
45 14 110 23 143 17 58 18 60 83 93 36 18 67 32 69 31 1 -2 -5 -23 -13 -47z
m-164 -67 c-32 -63 -52 -147 -53 -223 0 -68 -3 -76 -37 -119 l-37 -47 -64 60
c-36 33 -84 73 -108 89 l-42 29 42 36 c57 47 294 207 316 212 1 1 -6 -16 -17
-37z m12258 9 l35 -29 -80 -93 c-44 -52 -87 -95 -95 -96 -8 -2 -24 5 -36 15
l-22 17 75 108 c42 59 78 107 82 107 4 0 22 -13 41 -29z m-479 -76 c34 -35 51
-58 44 -63 -6 -4 -54 -40 -107 -81 -94 -72 -97 -73 -127 -61 -17 7 -38 26 -46
41 -14 29 -14 29 78 123 51 51 95 94 98 95 3 0 30 -24 60 -54z m150 -101 c37
-27 48 -40 40 -49 -14 -17 -207 -154 -236 -167 -20 -10 -29 -8 -51 8 -52 39
-53 52 -3 92 24 21 75 63 113 95 38 31 73 57 78 57 5 0 32 -16 59 -36z
m-13780 -94 c30 -30 27 -83 -6 -109 -35 -27 -59 -26 -89 4 -34 33 -33 77 1
104 34 26 68 27 94 1z m-1035 -96 l23 -15 -17 -52 c-27 -78 -74 -165 -124
-232 -60 -79 -174 -188 -191 -182 -7 3 -58 11 -112 17 -76 10 -103 17 -116 32
-10 11 -18 24 -18 29 0 5 8 9 18 9 31 0 170 67 234 113 80 56 185 168 229 241
19 31 37 56 42 56 4 0 18 -7 32 -16z m1528 -135 c36 -22 55 -39 52 -47 -11
-30 -51 -72 -75 -79 -33 -10 -297 -10 -333 0 l-28 8 48 32 c56 38 108 117 117
181 l7 44 77 -52 c42 -29 103 -68 135 -87z m-740 2 c71 -49 222 -120 314 -148
73 -22 107 -26 203 -26 68 -1 127 4 144 11 42 18 43 8 2 -23 -29 -22 -51 -28
-136 -36 -238 -24 -502 43 -543 138 -19 44 -38 113 -30 113 2 0 23 -13 46 -29z
m905 -79 c39 -5 46 -15 32 -42 -10 -18 -9 -19 13 -9 17 8 35 8 61 0 24 -6 47
-6 63 0 32 12 31 12 31 -13 0 -13 3 -34 7 -47 8 -24 8 -24 -16 -8 -40 29 -113
22 -183 -16 -57 -32 -63 -33 -96 -21 -19 7 -45 13 -57 13 -34 1 -30 13 41 109
29 39 43 51 55 46 9 -4 31 -9 49 -12z m957 -134 c-12 -37 -57 -117 -69 -121
-6 -2 -52 -2 -102 1 l-92 4 23 35 c13 18 26 47 30 63 7 31 9 32 168 38 46 2
48 1 42 -20z m-774 -9 c11 -5 29 -24 39 -42 11 -17 38 -40 62 -51 48 -23 58
-48 32 -77 -24 -27 -37 -24 -58 12 l-19 32 -12 -30 c-11 -27 -68 -83 -83 -83
-4 0 -20 20 -36 45 -56 89 -122 117 -165 71 -19 -20 -27 -22 -59 -15 -67 15
-104 85 -60 113 14 8 30 6 68 -7 l51 -18 61 30 c65 33 140 41 179 20z m11074
-14 c77 -8 167 -15 200 -15 l61 0 11 -41 c13 -48 11 -49 -107 -69 -80 -13
-177 -9 -249 13 -42 12 -46 15 -58 62 -15 59 -15 65 -5 65 4 0 70 -7 147 -15z
m-10805 -94 c124 -29 252 -44 332 -39 68 4 69 3 49 -14 -38 -30 -162 -51 -270
-45 -116 6 -203 30 -200 55 3 30 -1 40 -18 58 -16 16 -16 16 2 11 11 -4 58
-15 105 -26z m-614 -47 c50 -21 89 -17 123 11 28 25 32 25 59 11 16 -8 47 -41
67 -73 21 -32 39 -59 41 -61 8 -11 77 33 93 59 17 28 21 30 27 16 3 -10 19
-24 33 -32 31 -16 79 -99 110 -192 30 -91 30 -93 -30 -93 -62 0 -181 -26 -234
-51 l-39 -19 -37 36 -36 35 13 57 c7 31 12 58 10 59 -2 2 -15 -15 -30 -37 -14
-22 -31 -40 -36 -40 -5 0 -31 14 -57 30 -60 39 -180 85 -260 100 l-62 12 55
62 c31 33 72 85 92 114 34 51 35 52 50 31 8 -12 30 -27 48 -35z m1111 -26 c85
-135 80 -272 -16 -397 -37 -50 -145 -127 -236 -171 -69 -33 -521 -220 -532
-220 -2 0 23 26 57 57 76 70 132 143 195 251 46 80 48 84 43 146 -3 38 -16 87
-32 121 -14 32 -26 60 -26 62 0 3 44 3 98 -1 272 -18 294 -18 305 -7 8 8 -9
11 -63 12 -41 1 -88 4 -105 8 -28 7 -26 8 37 30 72 24 168 82 207 125 14 14
28 26 33 26 4 0 20 -19 35 -42z m10378 17 c72 0 149 3 171 7 l42 8 11 -44 c6
-25 11 -49 11 -54 0 -27 -264 -32 -347 -7 -59 18 -58 17 -67 68 -7 37 -7 38
21 30 15 -4 87 -8 158 -8z m-13276 -27 c150 -28 324 -88 459 -158 360 -187
615 -501 756 -930 70 -213 105 -426 120 -724 6 -108 -1 -113 -28 -22 -25 83
-78 197 -133 286 -125 201 -276 365 -816 883 -125 120 -227 223 -227 228 0 13
135 -38 230 -88 219 -114 434 -306 648 -579 35 -45 15 -9 -51 91 -214 321
-499 550 -827 665 l-105 37 -65 80 c-36 44 -94 122 -129 173 l-64 92 64 -7
c35 -4 111 -16 168 -27z m-284 -35 c21 -32 71 -101 112 -155 l74 -96 11 -176
c27 -433 -41 -977 -172 -1381 -191 -587 -506 -914 -931 -966 -97 -11 -140 -3
-239 46 -52 26 -173 115 -166 122 2 3 15 -2 28 -11 36 -24 136 -46 206 -46
108 0 277 52 408 125 472 264 716 918 690 1850 -7 256 -32 546 -62 713 -4 17
-4 32 -2 32 3 0 22 -26 43 -57z m2758 -13 c48 -6 105 -8 125 -6 25 4 14 -2
-33 -18 -38 -13 -105 -30 -149 -36 l-78 -13 -38 44 c-49 57 -40 72 33 53 29
-7 92 -18 140 -24z m10914 -64 l153 0 41 -80 c68 -131 186 -325 239 -392 l49
-63 -57 -11 c-133 -27 -240 -106 -278 -206 l-17 -44 -73 0 -74 0 0 85 c0 80
-3 91 -41 166 -54 107 -117 264 -173 427 l-45 133 62 -8 c34 -4 131 -7 214 -7z
m-15195 -186 c35 -17 74 -30 88 -30 53 0 65 -11 110 -96 193 -370 583 -573
1054 -551 72 4 150 10 174 13 l42 7 0 -85 c0 -47 -7 -154 -15 -239 -70 -696
-335 -1131 -813 -1330 -110 -45 -176 -54 -253 -35 -143 37 -247 142 -356 361
-111 221 -201 548 -230 826 -23 235 -23 812 0 1084 10 104 17 196 17 204 0 8
27 -11 59 -43 34 -31 88 -69 123 -86z m15789 70 c9 -30 14 -59 9 -63 -13 -14
-114 -37 -166 -37 -51 0 -52 1 -83 48 -17 26 -26 49 -20 50 50 18 217 60 229
59 8 -1 22 -26 31 -57z m69 -212 c23 -73 64 -189 92 -258 44 -111 50 -136 55
-222 l6 -98 -96 0 c-85 0 -96 2 -102 19 -9 30 4 66 36 97 16 15 29 32 29 38 0
5 -40 71 -89 145 -80 123 -168 283 -185 337 -6 20 -2 21 69 27 50 4 87 12 108
25 18 11 33 21 33 21 1 1 21 -59 44 -131z m-13790 -335 c1 -279 -75 -588 -211
-868 -60 -122 -37 -93 52 66 125 224 215 491 240 713 l12 107 41 -38 c290
-271 529 -512 616 -622 125 -157 197 -306 250 -516 59 -231 62 -356 15 -612
-71 -384 -188 -736 -356 -1073 -105 -208 -200 -340 -347 -481 -283 -273 -651
-427 -1167 -490 -130 -16 -527 -16 -680 0 -199 20 -547 80 -563 96 -2 1 26 33
62 70 70 70 222 268 324 422 l61 91 243 0 c324 0 519 21 768 82 504 125 898
399 1115 778 27 45 45 85 42 88 -3 3 -12 -7 -20 -23 -26 -49 -126 -174 -201
-251 -360 -371 -891 -578 -1585 -618 l-124 -7 67 77 c146 168 263 381 346 635
48 144 91 331 106 456 7 58 10 63 83 141 365 386 553 1056 540 1931 l-4 239
137 -141 137 -140 1 -112z m3928 94 l21 -22 -79 -134 c-43 -73 -82 -136 -86
-141 -5 -4 -28 -10 -50 -13 l-42 -5 -10 51 -10 52 69 117 70 118 48 0 c36 0
52 -5 69 -23z m9712 -17 c13 -8 13 -10 -2 -10 -33 0 -109 -40 -154 -82 -106
-97 -146 -270 -109 -465 8 -43 15 -79 15 -81 0 -2 -5 0 -11 4 -6 4 -24 35 -40
70 -28 61 -31 64 -65 64 -31 0 -37 4 -51 38 -10 23 -17 67 -17 117 l-1 80 37
3 c36 3 39 7 69 70 42 88 120 166 185 186 57 17 122 20 144 6z m949 -35 c3 -4
-3 -11 -14 -17 -11 -6 -43 -35 -72 -64 -76 -77 -97 -151 -97 -344 0 -152 14
-222 64 -307 30 -51 6 -39 -64 30 -43 43 -74 87 -97 135 l-34 71 -72 0 c-71 1
-71 1 -82 34 -7 17 -14 58 -18 90 l-6 57 74 0 74 0 49 105 c52 112 110 189
161 212 29 13 120 11 134 -2z m-925 -1 c22 -8 20 -21 -4 -29 -28 -9 -66 -70
-82 -130 -8 -31 -26 -65 -49 -92 -43 -47 -53 -86 -47 -173 5 -72 43 -133 102
-166 24 -14 44 -35 53 -56 8 -18 39 -59 71 -90 l56 -58 -39 -2 c-104 -5 -153
10 -213 66 -85 77 -129 217 -120 379 9 151 61 255 162 323 49 33 78 40 110 28z
m-11444 -131 c72 -65 130 -121 130 -125 0 -3 -24 -19 -52 -36 -203 -114 -364
-352 -392 -578 -6 -41 -2 -36 19 36 47 154 140 295 250 380 l54 42 129 -112
130 -111 -10 -37 c-20 -72 -90 -248 -130 -324 -45 -87 -104 -148 -144 -148
l-27 0 7 93 c4 50 11 110 16 132 12 52 5 56 -15 9 -53 -125 -87 -243 -88 -304
l-2 -65 31 -3 c41 -4 134 65 203 150 99 122 191 338 227 536 l16 89 66 -45
c82 -55 229 -125 300 -143 29 -7 51 -15 49 -18 -35 -65 -68 -144 -73 -180 -3
-25 -17 -86 -30 -136 -25 -98 -54 -294 -81 -560 -24 -236 -24 -605 0 -698 18
-71 48 -139 76 -171 15 -18 15 -18 -19 -11 -152 32 -411 201 -665 432 -184
168 -179 161 -200 294 -10 63 -21 152 -25 199 -8 101 -12 68 -10 -90 3 -319
75 -612 225 -915 118 -241 262 -442 435 -609 94 -92 95 -85 -19 -138 -85 -39
-214 -66 -374 -79 -189 -14 -180 -19 -221 109 -276 857 -357 1841 -220 2692
20 124 69 358 92 439 l18 64 80 28 c43 15 87 28 97 28 10 1 76 -52 147 -116z
m12537 67 c101 -50 150 -138 160 -284 12 -169 -32 -308 -127 -404 -83 -84
-158 -93 -225 -24 -101 103 -146 262 -124 448 15 134 56 207 148 266 57 36 93
35 168 -2z m-1007 -52 c0 -4 -11 -24 -25 -44 -24 -35 -30 -60 -25 -114 3 -41
18 -50 81 -50 l59 0 0 -85 0 -85 -59 0 -59 0 45 -131 c25 -72 42 -133 39 -136
-3 -3 -34 23 -69 58 -52 53 -68 76 -85 129 -29 89 -42 177 -42 291 0 109 16
168 58 212 l27 28 28 -32 c15 -18 27 -37 27 -41z m-9684 12 c35 -17 80 -50
103 -75 l42 -45 -33 -60 c-34 -62 -48 -74 -48 -40 0 50 -112 134 -207 154
l-32 7 31 50 c35 58 41 59 144 9z m8844 -16 c6 -14 10 -45 10 -70 l0 -44 50 0
50 0 0 -105 0 -105 -40 0 c-22 0 -40 -5 -40 -11 0 -6 9 -47 20 -91 12 -44 20
-84 18 -89 -7 -20 -80 56 -107 110 -63 125 -75 211 -40 313 39 117 60 142 79
92z m-3801 -146 l20 -47 53 15 c76 20 79 18 23 -21 -28 -20 -51 -39 -53 -44
-1 -4 14 -29 34 -55 20 -26 34 -49 32 -51 -2 -3 -28 12 -57 31 -29 20 -54 34
-55 32 -95 -122 -96 -123 -71 -42 8 27 15 54 15 60 0 7 -28 23 -62 37 l-62 25
71 7 c43 4 70 11 70 18 0 7 1 37 2 67 3 59 2 59 40 -32z m-5123 36 c47 -22
144 -104 144 -122 0 -4 -21 -13 -46 -20 l-46 -12 -45 40 c-25 22 -72 49 -104
61 -54 20 -58 23 -47 43 27 52 49 54 144 10z m9184 -76 c1 -40 7 -91 15 -113
8 -22 15 -42 15 -46 0 -3 -26 -2 -57 2 -32 4 -66 8 -75 8 -16 1 -18 13 -18
111 l0 110 60 0 60 0 0 -72z m-9313 -20 c42 -15 75 -38 119 -82 94 -94 93 -85
17 -215 -52 -89 -69 -111 -82 -105 -9 4 -42 16 -74 28 l-58 21 3 68 c2 61 0
71 -22 94 -19 20 -94 74 -138 99 -9 5 61 103 76 107 42 11 106 5 159 -15z
m10209 -12 c-6 -23 5 -94 19 -128 7 -17 -2 -18 -104 -18 l-111 0 0 80 0 79 58
4 c149 9 145 9 138 -17z m-10606 -92 c61 -14 205 -78 241 -106 15 -12 15 -24
0 -147 l-16 -135 -55 -32 c-71 -42 -133 -112 -173 -196 l-32 -68 -45 1 c-25 1
-71 4 -102 8 l-57 6 29 47 30 48 -33 46 c-28 40 -32 54 -32 107 0 69 23 125
81 201 l35 45 -26 7 c-35 9 -67 -22 -108 -105 -39 -80 -49 -186 -23 -251 l16
-40 -71 -47 c-39 -26 -67 -49 -62 -50 5 -2 38 1 73 6 36 5 66 8 67 7 1 -1 -69
-123 -156 -271 l-159 -269 31 -46 c47 -69 130 -145 190 -174 60 -30 154 -48
178 -35 9 4 46 57 82 117 l67 109 36 -33 c19 -19 40 -34 45 -34 17 0 9 -21
-62 -163 -137 -275 -263 -498 -301 -537 -38 -37 -109 -70 -153 -70 -46 0 -96
98 -121 240 -33 181 -18 597 33 935 l16 110 25 -88 c28 -98 40 -110 22 -21 -7
33 -12 135 -12 241 1 175 2 186 26 240 28 61 99 165 214 316 l74 97 62 0 c33
0 90 -7 126 -16z m9703 -206 c51 -401 67 -673 70 -1223 2 -334 0 -392 -17
-480 -23 -124 -50 -213 -86 -286 -33 -63 -50 -81 -69 -70 -11 7 -10 13 2 32
90 145 101 628 32 1429 -18 199 -58 537 -78 653 l-14 77 72 0 71 0 17 -132z
m164 70 c96 -195 240 -300 368 -269 28 7 69 15 92 18 49 6 39 31 103 -251 l40
-179 -129 -391 c-190 -573 -189 -567 -198 -993 l-6 -283 -51 0 c-104 0 -257
57 -377 141 -32 23 -59 44 -59 46 0 2 11 21 24 42 35 55 81 191 100 296 24
133 36 340 36 610 -1 508 -25 883 -75 1175 -8 47 -15 88 -15 93 0 4 26 7 58 7
l58 0 31 -62z m756 -75 c57 -176 108 -429 139 -688 17 -145 17 -730 0 -975
-21 -290 -47 -514 -73 -612 l-9 -37 -37 15 c-20 9 -44 13 -55 11 -22 -6 -22
-7 1 111 42 208 55 348 55 602 0 257 -9 345 -59 640 -47 270 -156 725 -239
993 l-15 47 129 0 129 0 34 -107z m207 32 c54 -93 150 -187 225 -221 49 -23
66 -25 133 -22 42 3 84 8 93 12 33 15 99 -410 99 -639 0 -161 -11 -222 -104
-593 -81 -324 -108 -449 -131 -617 -21 -154 -38 -438 -30 -512 4 -35 3 -63 -2
-63 -5 0 -38 30 -73 66 -78 79 -203 175 -274 211 -28 14 -52 26 -53 27 -1 1 5
35 13 76 22 115 52 346 71 545 25 271 23 741 -6 985 -43 375 -100 688 -140
769 l-19 40 67 4 c36 2 71 4 76 5 6 1 30 -32 55 -73z m-10394 -201 c86 -53
162 -145 179 -215 6 -23 0 -32 -36 -60 -54 -44 -133 -148 -167 -221 -18 -41
-32 -58 -45 -58 -16 0 -18 5 -12 33 4 17 13 47 21 65 9 22 11 40 5 50 -25 46
-129 119 -225 158 -36 15 -66 31 -66 35 0 13 126 136 168 164 35 23 42 34 48
70 l6 44 37 -17 c20 -9 59 -31 87 -48z m6584 -140 c219 -62 389 -278 390 -495
l0 -56 -52 -7 c-68 -8 -964 -6 -1002 3 -29 6 -30 7 -27 70 6 161 96 319 231
410 141 93 301 120 460 75z m-6865 -179 c40 -19 94 -54 120 -77 l46 -43 -17
-40 c-13 -30 -18 -77 -22 -191 l-4 -151 -87 -21 c-132 -32 -160 -18 -201 96
-26 72 -50 95 -125 118 l-52 17 9 41 c14 64 42 117 87 169 37 41 48 47 82 47
21 0 39 4 39 9 0 25 21 61 36 61 9 0 49 -16 89 -35z m-320 -86 c-19 -28 -35
-60 -35 -71 0 -14 -5 -18 -15 -14 -8 3 -37 8 -64 12 l-49 6 37 59 36 59 63 0
62 0 -35 -51z m-102 -125 l46 -16 3 -61 3 -62 36 -6 c41 -6 89 -38 113 -73 14
-23 14 -27 -1 -55 l-17 -29 -58 63 c-66 72 -151 121 -229 131 -27 4 -49 9 -49
12 0 3 14 30 32 59 36 59 47 62 121 37z m-13 -185 c64 -34 146 -115 156 -154
4 -15 -5 -42 -27 -79 l-32 -57 -28 50 c-52 90 -150 144 -282 153 -20 1 -37 3
-37 5 0 2 17 30 38 64 l37 61 57 -5 c37 -3 77 -16 118 -38z m7133 -89 c311 0
406 2 510 16 37 4 37 4 31 -23 -26 -120 -151 -270 -275 -332 -99 -50 -169 -64
-283 -59 -147 8 -262 61 -366 170 -47 49 -113 165 -124 218 l-5 25 87 -7 c48
-4 239 -8 425 -8z m-7203 -66 c51 -28 83 -62 115 -123 l17 -34 -32 7 c-86 17
-260 135 -260 177 0 21 105 3 160 -27z m9977 -1079 c70 -57 170 -117 248 -149
67 -27 196 -56 249 -56 31 0 37 -4 42 -27 3 -16 15 -64 26 -107 16 -64 17 -81
6 -87 -40 -26 -208 -58 -300 -59 l-46 0 -17 53 c-44 134 -146 278 -255 360
-33 25 -65 48 -72 50 -9 4 -1 16 22 36 19 17 36 31 38 31 2 0 28 -20 59 -45z
m-99 -79 c116 -89 202 -202 248 -323 14 -36 24 -78 22 -92 -3 -23 -10 -27 -63
-39 -33 -7 -127 -13 -209 -15 l-149 -2 -17 85 c-22 107 -59 203 -103 273 l-35
54 57 17 c31 9 83 32 116 51 33 18 64 34 68 34 5 1 34 -19 65 -43z m-318 -103
c53 -68 108 -215 125 -335 8 -54 10 -53 -112 -63 l-83 -7 0 71 c0 79 -21 196
-51 280 -10 30 -17 57 -14 59 6 6 66 20 92 21 12 1 31 -10 43 -26z m-169 -64
c37 -75 59 -170 59 -266 l0 -72 -36 -7 c-50 -9 -243 3 -328 21 -39 8 -90 25
-115 37 -53 27 -55 41 -15 125 32 66 88 116 178 159 61 29 166 60 213 63 7 1
27 -27 44 -60z m1700 -20 c88 -42 193 -125 306 -240 l81 -84 29 -131 29 -132
-73 -36 -72 -35 -6 37 c-23 135 -84 271 -155 342 -77 77 -241 150 -340 150
-62 0 -64 8 -24 94 l36 78 57 -4 c38 -3 82 -16 132 -39z m-88 -190 c131 -43
217 -126 297 -284 27 -55 43 -102 46 -137 l6 -53 -89 -37 c-49 -21 -91 -38
-95 -38 -3 0 -26 33 -51 73 -100 160 -253 262 -432 288 l-75 11 97 104 98 104
68 -5 c38 -3 96 -15 130 -26z m-298 -224 c158 -33 311 -145 383 -283 l33 -62
-23 -8 c-149 -55 -182 -65 -185 -56 -2 6 -20 39 -41 74 -76 130 -197 235 -323
281 -86 31 -92 45 -27 57 76 14 105 13 183 -3z m-144 -96 c35 -19 94 -63 130
-99 76 -75 184 -231 166 -241 -47 -26 -335 -69 -463 -69 -216 0 -424 89 -424
181 0 54 133 152 318 235 102 46 176 44 273 -7z"/>
<path d="M13696 17846 c-21 -22 -51 -51 -67 -64 -27 -22 -28 -22 -26 -2 1 11
7 20 15 20 7 0 11 4 8 9 -5 8 21 26 35 23 3 0 6 6 6 13 0 9 -5 11 -11 7 -6 -5
-30 -24 -54 -42 -38 -30 -44 -32 -55 -17 -10 13 -14 14 -24 2 -10 -10 -9 -14
4 -19 11 -5 12 -10 5 -19 -8 -10 -6 -13 7 -13 11 0 17 6 14 13 -3 7 0 13 6 13
11 0 15 -13 12 -36 -1 -7 6 -15 15 -18 13 -5 14 -9 4 -21 -11 -13 -10 -14 4
-9 12 5 19 0 23 -15 3 -11 10 -21 15 -21 5 0 6 -5 3 -10 -4 -6 -12 -7 -18 -4
-7 4 -9 4 -5 -1 4 -4 4 -13 -2 -19 -6 -8 -2 -12 13 -13 14 -2 17 1 9 6 -10 6
-10 10 3 21 8 7 15 8 15 3 0 -6 8 -19 18 -31 11 -12 18 -34 17 -51 -1 -17 2
-28 7 -25 4 3 8 -1 8 -8 0 -10 2 -10 9 0 6 11 14 6 30 -17 12 -17 30 -31 39
-31 15 0 15 -2 2 -10 -8 -5 -10 -10 -5 -10 6 0 17 5 25 10 13 9 13 10 0 10 -8
1 0 7 19 15 39 18 44 18 36 5 -4 -6 1 -7 11 -3 12 4 15 3 10 -5 -4 -7 -14 -12
-21 -12 -33 0 -69 -50 -46 -64 5 -4 7 2 4 12 -3 13 8 23 43 40 44 22 46 24 28
38 -18 14 -18 15 -1 10 12 -4 16 -2 11 6 -5 8 -2 9 10 5 10 -4 15 -3 11 3 -3
6 2 10 12 11 10 0 13 3 6 5 -6 3 -45 -9 -87 -27 -42 -18 -78 -30 -80 -28 -1 2
-42 59 -90 127 -99 140 -99 124 0 203 34 28 65 58 68 65 9 24 -7 13 -48 -30z"/>
<path d="M10606 15390 c-7 -17 -236 -703 -236 -707 0 -2 110 -3 244 -3 l243 0
-117 348 c-64 191 -119 354 -122 362 -5 13 -6 13 -12 0z"/>
<path d="M13320 15407 c0 -35 -3 -125 -7 -200 l-6 -137 109 0 c209 1 355 15
400 38 85 44 122 113 111 208 -6 55 -41 97 -107 128 -41 19 -66 21 -272 24
l-228 4 0 -65z"/>
<path d="M17512 15450 c-46 -43 -15 -120 48 -120 17 0 39 9 50 20 11 11 20 33
20 50 0 62 -73 92 -118 50z"/>
<path d="M17977 15099 c-48 -28 -40 -107 13 -129 23 -9 34 -9 58 4 49 25 56
72 17 111 -25 26 -58 31 -88 14z"/>
<path d="M16757 14853 c-30 -34 -31 -70 -3 -97 34 -35 78 -35 105 0 12 15 21
34 21 44 0 10 -9 29 -21 44 -24 31 -77 36 -102 9z"/>
<path d="M17328 14494 c-63 -34 -77 -122 -28 -178 90 -102 254 3 196 126 -30
62 -107 86 -168 52z m119 -14 c60 -36 62 -132 2 -174 -26 -18 -90 -21 -120 -6
-25 14 -49 62 -49 98 0 16 10 42 21 56 38 49 93 58 146 26z"/>
<path d="M8922 15058 c-51 -25 -83 -65 -106 -132 -32 -99 -13 -524 28 -604 31
-59 74 -37 130 68 32 60 52 112 139 365 40 119 43 205 7 257 -45 67 -119 84
-198 46z"/>
<path d="M10443 13624 c-68 -25 -137 -95 -180 -182 -37 -74 -38 -79 -37 -177
1 -91 6 -112 48 -235 78 -227 149 -352 201 -355 17 -1 44 48 55 102 6 28 15
163 20 300 8 230 11 256 39 362 17 62 31 123 31 135 0 55 -94 81 -177 50z"/>
<path d="M9136 12500 c-12 -30 -236 -705 -236 -712 0 -5 108 -8 240 -8 186 0
240 3 240 13 0 29 -238 721 -244 707z"/>
<path d="M11860 12512 c0 -43 -3 -134 -7 -202 l-6 -123 219 6 c230 6 273 14
332 57 52 39 75 93 70 166 -3 54 -9 69 -33 95 -63 66 -95 74 -347 77 l-228 4
0 -80z"/>
<path d="M16156 10770 c-118 -104 -112 -372 12 -465 36 -27 102 -26 139 1 59
44 96 139 95 244 -1 76 -12 115 -47 176 -47 80 -135 99 -199 44z m114 -3 c0
-2 16 -91 35 -198 30 -165 33 -196 21 -207 -18 -18 -17 -21 -56 193 -17 94
-34 180 -37 193 -4 17 -1 22 16 22 12 0 21 -2 21 -3z"/>
<path d="M16690 10693 c-35 -13 -90 -79 -107 -127 -66 -199 62 -451 200 -392
77 33 121 122 121 247 -1 75 -5 95 -31 151 -19 39 -44 75 -64 91 -35 26 -92
41 -119 30z"/>
<path d="M15885 7952 c-105 -51 -185 -159 -221 -302 -20 -78 -15 -237 10 -317
41 -129 157 -245 264 -262 102 -16 188 14 268 94 90 89 138 216 138 360 0 110
-16 179 -62 268 -61 118 -149 179 -267 185 -61 3 -78 -1 -130 -26z m232 -33
c22 -11 62 -42 88 -70 160 -172 149 -500 -22 -661 -74 -68 -105 -82 -193 -82
-64 -1 -82 3 -121 26 -172 101 -241 350 -159 571 75 199 248 292 407 216z"/>
<path d="M15929 7830 c-210 -111 -223 -489 -22 -607 115 -67 250 -7 320 142
25 54 28 70 28 170 0 101 -3 115 -30 168 -31 63 -79 111 -131 133 -46 19 -122
17 -165 -6z m186 -69 c26 -17 50 -47 70 -86 26 -52 30 -69 30 -144 0 -68 -5
-96 -23 -136 -68 -148 -206 -188 -306 -89 -104 104 -103 325 3 428 71 70 149
79 226 27z"/>
<path d="M15950 7662 c-73 -74 -64 -288 15 -324 53 -24 105 29 125 129 22 102
-26 223 -87 223 -14 0 -37 -12 -53 -28z m75 -18 c66 -26 60 -229 -8 -265 -68
-37 -125 104 -83 204 23 57 51 76 91 61z"/>
<path d="M4716 6143 c19 -25 43 -62 53 -82 26 -51 61 -167 61 -203 l0 -30 -44
48 c-24 27 -59 58 -77 68 -34 19 -34 19 7 -20 98 -93 154 -221 159 -367 l4
-87 -52 45 c-65 56 -76 58 -25 3 79 -86 116 -224 90 -338 -6 -24 -9 -46 -7
-49 3 -2 16 20 30 50 30 65 33 151 8 207 -13 28 -17 67 -18 157 -1 96 -5 130
-22 172 -14 36 -19 65 -16 95 12 102 -35 228 -119 323 -60 67 -81 73 -32 8z"/>
<path d="M3234 2029 c-47 -50 -162 -142 -249 -198 -141 -92 -315 -164 -471
-195 l-69 -14 70 -1 c207 -2 501 139 747 359 61 55 68 65 52 71 -34 14 -50 9
-80 -22z"/>
<path d="M17632 3772 c-45 -45 -56 -81 -56 -172 1 -92 14 -148 40 -180 21 -25
33 -30 68 -30 92 0 155 83 164 214 8 124 -37 193 -132 203 -41 5 -47 2 -84
-35z m144 -27 c22 -34 29 -129 14 -200 -16 -78 -56 -120 -103 -111 -58 12 -72
36 -76 133 -5 142 28 203 110 203 30 0 42 -6 55 -25z"/>
</g>
</svg>
